<?xml version="1.0" encoding="UTF-8"?>
<svg id="Layer_2" xmlns="http://www.w3.org/2000/svg" viewBox="0 0 57 169">
  <defs>
    <style>
      .cls-1 {
        fill: none;
        stroke: #000;
        stroke-miterlimit: 10;
      }

      .cls-2 {
        fill: #fff;
      }
    </style>
  </defs>
  <g id="Layer_1-2" data-name="Layer_1">
    <g id="center">
      <g>
        <path d="M28.5,83.5c-7.72,0-14-6.28-14-14s6.28-14,14-14,14,6.28,14,14-6.28,14-14,14Z"/>
        <path class="cls-2" d="M28.5,56c7.44,0,13.5,6.06,13.5,13.5s-6.06,13.5-13.5,13.5-13.5-6.06-13.5-13.5,6.06-13.5,13.5-13.5M28.5,55c-8.01,0-14.5,6.49-14.5,14.5s6.49,14.5,14.5,14.5,14.5-6.49,14.5-14.5-6.49-14.5-14.5-14.5h0Z"/>
      </g>
      <line class="cls-1" x1=".5" y1=".5" x2="56.5" y2=".5"/>
      <line class="cls-1" x1=".5" y1="168.5" x2="56.5" y2="168.5"/>
      <line class="cls-1" x1=".5" y1=".5" x2=".5" y2="168.5"/>
      <line class="cls-1" x1="56.5" y1=".5" x2="56.5" y2="168.5"/>
    </g>
  </g>
</svg>