<?xml version="1.0" encoding="UTF-8"?>
<svg id="Layer_2" xmlns="http://www.w3.org/2000/svg" viewBox="0 0 66.84 188">
  <defs>
    <style>
      .cls-1 {
        fill: none;
        stroke: #000;
        stroke-miterlimit: 10;
      }
    </style>
  </defs>
  <g id="Layer_1-2" data-name="Layer_1">
    <g id="highBackward">
      <polyline points="66.5 .5 65.5 .5 65.5 187.5 66.5 187.5 66.5 .5"/>
      <line class="cls-1" x1="66" y1="187.5" x2="29.5" y2="187.5"/>
      <line class="cls-1" x1="29.5" y1="122.5" x2="29.5" y2="187.5"/>
      <line class="cls-1" x1=".5" y1="121.5" x2="29.5" y2="121.5"/>
      <line class="cls-1" x1="29.5" y1="122.5" x2="29.5" y2="121.5"/>
      <line class="cls-1" x1=".5" y1="121.5" x2=".5" y2="0"/>
      <line class="cls-1" x1="65.5" y1=".5" x2=".5" y2=".5"/>
      <line class="cls-1" x1=".5" y1="35.5" x2="38.5" y2=".5"/>
      <line class="cls-1" x1=".5" y1="66.5" x2="65.5" y2=".5"/>
      <line class="cls-1" x1=".96" y1="96.04" x2="65.96" y2="36.04"/>
      <line class="cls-1" x1="8.5" y1="121.5" x2="65.5" y2="66.5"/>
      <line class="cls-1" x1="29.5" y1="127.5" x2="66.5" y2="93.5"/>
      <line class="cls-1" x1="29.5" y1="155.5" x2="65.5" y2="123.5"/>
      <line class="cls-1" x1="29.5" y1="187.5" x2="65.5" y2="155.5"/>
    </g>
  </g>
</svg>