<?xml version="1.0" encoding="UTF-8"?>
<svg id="Layer_2" xmlns="http://www.w3.org/2000/svg" viewBox="0 0 65.91 174.6">
  <defs>
    <style>
      .cls-1 {
        fill: none;
        stroke: #000;
        stroke-miterlimit: 10;
      }

      .cls-2 {
        fill: #fff;
      }
    </style>
  </defs>
  <g id="Layer_1-2" data-name="Layer_1">
    <g id="left">
      <g>
        <path d="M37.41,102.29c-7.72,0-14-6.28-14-14s6.28-14,14-14,14,6.28,14,14-6.28,14-14,14Z"/>
        <path class="cls-2" d="M37.41,74.79c7.44,0,13.5,6.06,13.5,13.5s-6.06,13.5-13.5,13.5-13.5-6.06-13.5-13.5,6.06-13.5,13.5-13.5M37.41,73.79c-8.01,0-14.5,6.49-14.5,14.5s6.49,14.5,14.5,14.5,14.5-6.49,14.5-14.5-6.49-14.5-14.5-14.5h0Z"/>
      </g>
      <line class="cls-1" x1="65.41" y1=".29" x2="65.41" y2="174.29"/>
      <line class="cls-1" x1=".41" y1="93.29" x2="65.41" y2=".29"/>
      <line class="cls-1" x1="65.41" y1="174.29" x2=".41" y2="93.29"/>
    </g>
  </g>
</svg>