<?xml version="1.0" encoding="UTF-8"?>
<svg id="Layer_2" xmlns="http://www.w3.org/2000/svg" viewBox="0 0 65 167.88">
  <defs>
    <style>
      .cls-1 {
        fill: none;
        stroke: #000;
        stroke-miterlimit: 10;
      }

      .cls-2 {
        fill: #fff;
      }
    </style>
  </defs>
  <g id="Layer_1-2" data-name="Layer_1">
    <g id="leftForward">
      <g>
        <path d="M32.5,134.38c-7.72,0-14-6.28-14-14s6.28-14,14-14,14,6.28,14,14-6.28,14-14,14Z"/>
        <path class="cls-2" d="M32.5,106.88c7.44,0,13.5,6.06,13.5,13.5s-6.06,13.5-13.5,13.5-13.5-6.06-13.5-13.5,6.06-13.5,13.5-13.5M32.5,105.88c-8.01,0-14.5,6.49-14.5,14.5s6.49,14.5,14.5,14.5,14.5-6.49,14.5-14.5-6.49-14.5-14.5-14.5h0Z"/>
      </g>
      <line class="cls-1" x1=".5" y1=".38" x2=".5" y2="167.38"/>
      <line class="cls-1" x1="64.5" y1="56.38" x2="64.5" y2="167.38"/>
      <line class="cls-1" x1=".5" y1="167.38" x2="64.5" y2="167.38"/>
      <line class="cls-1" x1=".5" y1=".38" x2="64.5" y2="56.38"/>
    </g>
  </g>
</svg>