<?xml version="1.0" encoding="UTF-8"?>
<svg id="Layer_2" xmlns="http://www.w3.org/2000/svg" viewBox="0 0 60 144.89">
  <defs>
    <style>
      .cls-1 {
        fill: none;
        stroke: #000;
        stroke-miterlimit: 10;
      }

      .cls-2 {
        fill: #fff;
      }
    </style>
  </defs>
  <g id="Layer_1-2" data-name="Layer_1">
    <g id="rightForward">
      <g>
        <path d="M29.5,108.39c-7.72,0-14-6.28-14-14s6.28-14,14-14,14,6.28,14,14-6.28,14-14,14Z"/>
        <path class="cls-2" d="M29.5,80.89c7.44,0,13.5,6.06,13.5,13.5s-6.06,13.5-13.5,13.5-13.5-6.06-13.5-13.5,6.06-13.5,13.5-13.5M29.5,79.89c-8.01,0-14.5,6.49-14.5,14.5s6.49,14.5,14.5,14.5,14.5-6.49,14.5-14.5-6.49-14.5-14.5-14.5h0Z"/>
      </g>
      <line class="cls-1" x1="59.5" y1=".39" x2="59.5" y2="144.39"/>
      <line class="cls-1" x1=".5" y1="47.39" x2=".5" y2="144.39"/>
      <line class="cls-1" x1="59.5" y1=".39" x2=".5" y2="47.39"/>
      <line class="cls-1" x1=".5" y1="144.39" x2="59.5" y2="144.39"/>
    </g>
  </g>
</svg>